# Blender v2.76 (sub 0) OBJ File: 'simpleTower.blend'
# www.blender.org
mtllib simpleTower.mtl
o Spire_Cube.003
v -1.065205 7.732729 1.065205
v 0.000000 9.732729 0.000000
v -1.065205 7.732729 -1.065205
v 1.065205 7.732729 1.065205
v 1.065205 7.732729 -1.065205
v -0.648129 8.277032 0.648129
v -0.648129 8.277032 -0.648129
v 0.648129 8.277032 -0.648129
v 0.648129 8.277032 0.648129
vn -0.793800 0.608200 0.000000
vn 0.000000 0.608200 -0.793800
vn 0.793800 0.608200 0.000000
vn 0.000000 0.608200 0.793800
vn 0.000000 -1.000000 0.000000
vn 0.000000 0.406700 0.913500
vn 0.913500 0.406700 0.000000
vn 0.000000 0.406700 -0.913500
vn -0.913500 0.406700 0.000000
usemtl None
s off
f 6//1 7//1 3//1 1//1
f 7//2 8//2 5//2 3//2
f 8//3 9//3 4//3 5//3
f 9//4 6//4 1//4 4//4
f 1//5 3//5 5//5 4//5
f 2//6 6//6 9//6
f 2//7 9//7 8//7
f 2//8 8//8 7//8
f 2//9 7//9 6//9
o Pillar_Cube.001
v 0.621621 7.833636 0.901569
v 0.621621 5.984673 0.901569
v 0.621621 7.833636 0.574679
v 0.621621 5.984673 0.574679
v 0.948512 7.833636 0.901569
v 0.948512 5.984673 0.901569
v 0.948512 7.833636 0.574679
v 0.948512 5.984673 0.574679
v -0.621621 7.833636 0.901569
v -0.621621 5.984673 0.901569
v -0.621621 7.833636 0.574679
v -0.621621 5.984673 0.574679
v -0.948512 7.833636 0.901569
v -0.948512 5.984673 0.901569
v -0.948512 7.833636 0.574679
v -0.948512 5.984673 0.574679
v 0.621621 7.833636 -0.901569
v 0.621621 5.984673 -0.901569
v 0.621621 7.833636 -0.574679
v 0.621621 5.984673 -0.574679
v 0.948512 7.833636 -0.901569
v 0.948512 5.984673 -0.901569
v 0.948512 7.833636 -0.574679
v 0.948512 5.984673 -0.574679
v -0.621621 7.833636 -0.901569
v -0.621621 5.984673 -0.901569
v -0.621621 7.833636 -0.574679
v -0.621621 5.984673 -0.574679
v -0.948512 7.833636 -0.901569
v -0.948512 5.984673 -0.901569
v -0.948512 7.833636 -0.574679
v -0.948512 5.984673 -0.574679
vn 1.000000 0.000000 0.000000
vn 0.000000 0.000000 1.000000
vn -1.000000 0.000000 0.000000
vn 0.000000 0.000000 -1.000000
vn 0.000000 -1.000000 0.000000
vn 0.000000 1.000000 0.000000
usemtl Material
s off
f 11//10 13//10 12//10 10//10
f 13//11 17//11 16//11 12//11
f 17//12 15//12 14//12 16//12
f 15//13 11//13 10//13 14//13
f 10//14 12//14 16//14 14//14
f 15//15 17//15 13//15 11//15
f 19//12 18//12 20//12 21//12
f 21//11 20//11 24//11 25//11
f 25//10 24//10 22//10 23//10
f 23//13 22//13 18//13 19//13
f 18//14 22//14 24//14 20//14
f 23//15 19//15 21//15 25//15
f 27//10 26//10 28//10 29//10
f 29//13 28//13 32//13 33//13
f 33//12 32//12 30//12 31//12
f 31//11 30//11 26//11 27//11
f 26//14 30//14 32//14 28//14
f 31//15 27//15 29//15 33//15
f 35//12 37//12 36//12 34//12
f 37//13 41//13 40//13 36//13
f 41//10 39//10 38//10 40//10
f 39//11 35//11 34//11 38//11
f 34//14 36//14 40//14 38//14
f 39//15 41//15 37//15 35//15
o MainPart_Cube
v 1.000000 0.000000 -1.000000
v 1.000000 0.000000 1.000000
v -1.000000 0.000000 1.000000
v -1.000000 0.000000 -1.000000
v 1.130459 6.018059 -1.139502
v 1.130457 6.018059 1.058485
v -1.067529 6.018059 1.058484
v -1.067528 6.018059 -1.139502
v -0.849980 5.796257 -0.849981
v -0.788953 0.277364 -0.788954
v -0.849981 5.796257 0.849980
v -0.788954 0.277364 0.788953
v 0.849980 5.796257 0.849981
v 0.788953 0.277364 0.788954
v 0.849981 5.796257 -0.849980
v 0.788954 0.277364 -0.788953
v -0.640954 1.861779 -0.640955
v -0.640955 1.861779 0.640954
v 0.640954 1.861779 0.640955
v 0.640955 1.861779 -0.640955
v -0.642473 3.631830 -0.642473
v -0.642473 3.631830 0.642472
v 0.642472 3.631830 0.642473
v 0.642473 3.631830 -0.642473
vn 0.000000 1.000000 0.000000
vn 0.000000 -1.000000 0.000000
vn -0.620300 0.784400 -0.000000
vn 0.000000 0.684900 -0.728600
vn 0.713900 0.700200 0.000000
vn -0.000000 -0.605500 0.795800
vn 0.000000 -0.605500 -0.795800
vn -0.000000 0.793800 0.608100
vn 0.000000 0.095400 -0.995400
vn 0.795800 -0.605500 0.000000
vn -0.000000 -0.093000 0.995700
vn 0.995400 0.095400 0.000000
vn -0.795800 -0.605500 -0.000000
vn -0.995400 0.095400 -0.000000
vn -0.995700 -0.093000 -0.000000
vn 0.995700 -0.093000 0.000000
vn -0.000000 0.000900 1.000000
vn 0.000000 -0.093000 -0.995700
vn -0.000000 0.095400 0.995400
vn -1.000000 0.000900 -0.000000
vn 1.000000 0.000900 0.000000
vn 0.000000 0.000900 -1.000000
usemtl Material
s off
f 42//16 45//16 44//16 43//16
f 46//17 47//17 48//17 49//17
f 56//18 54//18 47//18 46//18
f 54//19 52//19 48//19 47//19
f 52//20 50//20 49//20 48//20
f 57//21 51//21 45//21 42//21
f 43//22 44//22 53//22 55//22
f 46//23 49//23 50//23 56//23
f 64//24 63//24 52//24 54//24
f 44//25 45//25 51//25 53//25
f 61//26 58//26 51//26 57//26
f 63//27 62//27 50//27 52//27
f 42//28 43//28 55//28 57//28
f 65//29 64//29 54//29 56//29
f 57//30 55//30 60//30 61//30
f 53//31 51//31 58//31 59//31
f 65//32 62//32 58//32 61//32
f 55//33 53//33 59//33 60//33
f 56//34 50//34 62//34 65//34
f 61//35 60//35 64//35 65//35
f 59//36 58//36 62//36 63//36
f 60//37 59//37 63//37 64//37
