# Blender v2.76 (sub 0) OBJ File: 'simpleTower.blend'
# www.blender.org
mtllib simpleTower.mtl
o Spire_Cube.003
v -1.065205 7.732729 1.065205
v 0.000000 9.732729 0.000000
v -1.065205 7.732729 -1.065205
v 1.065205 7.732729 1.065205
v 1.065205 7.732729 -1.065205
v -0.648129 8.277032 0.648129
v -0.648129 8.277032 -0.648129
v 0.648129 8.277032 -0.648129
v 0.648129 8.277032 0.648129
vt -0.142224 -0.142224
vt 1.142224 -0.142224
vt 1.142224 1.142224
vt -0.142224 1.142224
vt 0.000000 0.000000
vt 1.000000 0.000000
vt 1.000000 1.000000
vt 0.000000 1.000000
vt -0.351596 -0.351596
vt 1.351596 -0.351596
vt 1.351596 1.351596
vn -0.793800 0.608200 0.000000
vn 0.000000 0.608200 -0.793800
vn 0.793800 0.608200 0.000000
vn 0.000000 0.608200 0.793800
vn 0.000000 -1.000000 0.000000
vn 0.000000 0.406700 0.913500
vn 0.913500 0.406700 0.000000
vn 0.000000 0.406700 -0.913500
vn -0.913500 0.406700 0.000000
usemtl MaterialRoof
s off
f 6/1/1 7/2/1 3/3/1 1/4/1
f 7/1/2 8/2/2 5/3/2 3/4/2
f 8/1/3 9/2/3 4/3/3 5/4/3
f 9/1/4 6/2/4 1/3/4 4/4/4
f 1/5/5 3/6/5 5/7/5 4/8/5
f 2/9/6 6/10/6 9/11/6
f 2/9/7 9/10/7 8/11/7
f 2/9/8 8/10/8 7/11/8
f 2/9/9 7/10/9 6/11/9
o Pillar_Cube.001
v 0.631592 7.791856 0.863478
v 0.631592 5.942893 0.863478
v 0.631592 7.791856 0.536587
v 0.631592 5.942893 0.536587
v 0.958483 7.791856 0.863478
v 0.958483 5.942893 0.863478
v 0.958483 7.791856 0.536587
v 0.958483 5.942893 0.536587
v -0.611649 7.791856 0.863478
v -0.611649 5.942893 0.863478
v -0.611649 7.791856 0.536587
v -0.611649 5.942893 0.536587
v -0.938540 7.791856 0.863478
v -0.938540 5.942893 0.863478
v -0.938540 7.791856 0.536587
v -0.938540 5.942893 0.536587
v 0.631592 7.791856 -0.939661
v 0.631592 5.942893 -0.939661
v 0.631592 7.791856 -0.612770
v 0.631592 5.942893 -0.612770
v 0.958483 7.791856 -0.939661
v 0.958483 5.942893 -0.939661
v 0.958483 7.791856 -0.612770
v 0.958483 5.942893 -0.612770
v -0.611649 7.791856 -0.939661
v -0.611649 5.942893 -0.939661
v -0.611649 7.791856 -0.612770
v -0.611649 5.942893 -0.612770
v -0.938540 7.791856 -0.939661
v -0.938540 5.942893 -0.939661
v -0.938540 7.791856 -0.612770
v -0.938540 5.942893 -0.612770
vn 1.000000 0.000000 0.000000
vn 0.000000 0.000000 1.000000
vn -1.000000 0.000000 0.000000
vn 0.000000 0.000000 -1.000000
vn 0.000000 -1.000000 0.000000
vn 0.000000 1.000000 0.000000
usemtl Material.001
s off
f 11//10 13//10 12//10 10//10
f 13//11 17//11 16//11 12//11
f 17//12 15//12 14//12 16//12
f 15//13 11//13 10//13 14//13
f 10//14 12//14 16//14 14//14
f 15//15 17//15 13//15 11//15
f 19//12 18//12 20//12 21//12
f 21//11 20//11 24//11 25//11
f 25//10 24//10 22//10 23//10
f 23//13 22//13 18//13 19//13
f 18//14 22//14 24//14 20//14
f 23//15 19//15 21//15 25//15
f 27//10 26//10 28//10 29//10
f 29//13 28//13 32//13 33//13
f 33//12 32//12 30//12 31//12
f 31//11 30//11 26//11 27//11
f 26//14 30//14 32//14 28//14
f 31//15 27//15 29//15 33//15
f 35//12 37//12 36//12 34//12
f 37//13 41//13 40//13 36//13
f 41//10 39//10 38//10 40//10
f 39//11 35//11 34//11 38//11
f 34//14 36//14 40//14 38//14
f 39//15 41//15 37//15 35//15
o MainPart_Cube
v 1.000000 0.000000 -1.000000
v 1.000000 0.000000 1.000000
v -1.000000 0.000000 1.000000
v -1.000000 0.000000 -1.000000
v 1.130459 6.018059 -1.139502
v 1.130457 6.018059 1.058485
v -1.067529 6.018059 1.058484
v -1.067528 6.018059 -1.139502
v -0.849980 5.796257 -0.849981
v -0.788953 0.277364 -0.788954
v -0.849981 5.796257 0.849980
v -0.788954 0.277364 0.788953
v 0.849980 5.796257 0.849981
v 0.788953 0.277364 0.788954
v 0.849981 5.796257 -0.849980
v 0.788954 0.277364 -0.788953
v -0.640954 1.861779 -0.640955
v -0.640955 1.861779 0.640954
v 0.640954 1.861779 0.640955
v 0.640955 1.861779 -0.640955
v -0.642473 3.631830 -0.642473
v -0.642473 3.631830 0.642472
v 0.642472 3.631830 0.642473
v 0.642473 3.631830 -0.642473
vt 0.000000 0.000000
vt 1.000000 0.000000
vt 1.000000 1.000000
vt 0.000000 1.000000
vt 0.000000 0.398653
vt 1.000000 0.398653
vt 1.000000 0.601347
vt 0.000000 0.601347
vt 0.000000 0.397639
vt 1.000000 0.397639
vt 1.000000 0.602361
vt 0.000000 0.602361
vn 0.000000 1.000000 0.000000
vn 0.000000 -1.000000 0.000000
vn -0.620300 0.784400 -0.000000
vn 0.000000 0.684900 -0.728600
vn 0.713900 0.700200 0.000000
vn -0.000000 -0.605500 0.795800
vn 0.000000 -0.605500 -0.795800
vn -0.000000 0.793800 0.608100
vn 0.000000 0.095400 -0.995400
vn 0.795800 -0.605500 0.000000
vn -0.000000 -0.093000 0.995700
vn 0.995400 0.095400 0.000000
vn -0.795800 -0.605500 -0.000000
vn -0.995400 0.095400 -0.000000
vn -0.995700 -0.093000 -0.000000
vn 0.995700 -0.093000 0.000000
vn -0.000000 0.000900 1.000000
vn 0.000000 -0.093000 -0.995700
vn -0.000000 0.095400 0.995400
vn -1.000000 0.000900 -0.000000
vn 1.000000 0.000900 0.000000
vn 0.000000 0.000900 -1.000000
usemtl MaterialMain
s off
f 42/12/16 45/13/16 44/14/16 43/15/16
f 46/12/17 47/13/17 48/14/17 49/15/17
f 56/16/18 54/17/18 47/18/18 46/19/18
f 54/16/19 52/17/19 48/18/19 47/19/19
f 52/16/20 50/17/20 49/18/20 48/19/20
f 57/20/21 51/21/21 45/22/21 42/23/21
f 43/20/22 44/21/22 53/22/22 55/23/22
f 46/16/23 49/17/23 50/18/23 56/19/23
f 64/12/24 63/13/24 52/14/24 54/15/24
f 44/20/25 45/21/25 51/22/25 53/23/25
f 61/12/26 58/13/26 51/14/26 57/15/26
f 63/12/27 62/13/27 50/14/27 52/15/27
f 42/20/28 43/21/28 55/22/28 57/23/28
f 65/12/29 64/13/29 54/14/29 56/15/29
f 57/12/30 55/13/30 60/14/30 61/15/30
f 53/12/31 51/13/31 58/14/31 59/15/31
f 65/12/32 62/13/32 58/14/32 61/15/32
f 55/12/33 53/13/33 59/14/33 60/15/33
f 56/12/34 50/13/34 62/14/34 65/15/34
f 61/12/35 60/13/35 64/14/35 65/15/35
f 59/12/36 58/13/36 62/14/36 63/15/36
f 60/12/37 59/13/37 63/14/37 64/15/37
